File Name: The Forgotten Ones 2009 BRRip H264 LKRG-Wrath.mp4

File Size
Format : MPEG-4
Format profile : Base Media
Codec ID : isom
File size : 2.20 GiB
Duration : 1h 27mn
Overall bit rate : 3 612 Kbps

Video
ID : 1
Format : AVC
Format/Info : Advanced Video Codec
Format profile : High@L4.1
Format settings, CABAC : Yes
Format settings, ReFrames : 3 frames
Codec ID : avc1
Codec ID/Info : Advanced Video Coding
Duration : 1h 27mn
Bit rate mode : Variable
Bit rate : 3 036 Kbps
Maximum bit rate : 20.8 Mbps
Width : 1 280 pixels
Height : 528 pixels
Display aspect ratio : 2.40:1
Frame rate mode : Constant
Frame rate : 23.976 fps
Resolution : 24 bits
Colorimetry : 4:2:0
Scan type : Progressive
Bits/(Pixel*Frame) : 0.187
Stream size : 1.84 GiB (84%)

Audio #1
ID : 2
Format : AAC
Format/Info : Advanced Audio Codec
Format version : Version 4
Format profile : LC
Format settings, SBR : No
Codec ID : 40
Duration : 1h 27mn
Bit rate mode : Variable
Bit rate : 128 Kbps
Maximum bit rate : 134 Kbps
Channel(s) : 2 channels
Channel positions : L R
Sampling rate : 48.0 KHz
Resolution : 16 bits
Stream size : 79.8 MiB (4%)

Audio #2
ID : 3
Format : AAC
Format/Info : Advanced Audio Codec
Format version : Version 4
Format profile : LC
Format settings, SBR : No
Codec ID : 40
Duration : 1h 27mn
Bit rate mode : Variable
Bit rate : 448 Kbps
Maximum bit rate : 466 Kbps
Channel(s) : 6 channels
Channel positions : Front: L C R, Rear: L R, LFE
Sampling rate : 48.0 KHz
Resolution : 16 bits
Stream size : 279 MiB (12%)

English SRT : N/A

Language :English

Info Hash:

Tracker Info:
Code: 
http://nemesis.1337x.org/announce
 
http://tracker.publicbt.com/announce
 
http://genesis.1337x.org:1337/announce
 
http://exodus.1337x.org/announce




Release Date: 2009 (USA)

Genre: Horror

Plot: When a devastating boat crash shipwrecks a group of friends in the jungles of an uncharted island, they are savagely picked off one-by-one by a cannibalistic enemy that evolution forgot. A horrifying action-adventure in the vein of Predator and Lost.

Cast:
Jewel Staite ... Liz
Justin Baldoni ... Peter
Marc Bacher ... Ira
Nikki Griffin ... Lauren
Kellan Lutz ... Jake
Helena Barrett ... Myra
Mohit Ramchandani ... Mo
Rhianna Vigrass ... Flashback Voiceover (voice)
Terry Notary ... Alpha Creature
Andrea Esquivel ... Creature
Felipe Salazar ... Creature
Jefferson Arce ... Creature
Aysha Morales ... Creature
Nestor Morera ... Creature
Wilberth Salazar ... Creature

 
http://www.imdb.com/title/tt1308169/